<?xml version="1.0" encoding="utf-8"?>
<!-- Generator: Adobe Illustrator 25.2.1 via Limmidy, SVG Export Plug-In . SVG Version: 6.00 Build 0)  -->
<svg version="1.1" id="Layer_1" xmlns="http://www.w3.org/2000/svg" xmlns:xlink="http://www.w3.org/1999/xlink" x="0px" y="0px"
	 viewBox="0 0 155.9 66.7" style="enable-background:new 0 0 155.9 66.7;" xml:space="preserve">
<style type="text/css">
	.st0{clip-path:url(#SVGID_2_);fill:#867533;}
	.st1{clip-path:url(#SVGID_2_);fill:#363638;}
</style>
<g>
	<defs>
		<rect id="SVGID_1_" width="155.9" height="66.7"/>
	</defs>
	<clipPath id="SVGID_2_">
		<use xlink:href="#SVGID_1_"  style="overflow:visible;"/>
	</clipPath>
	<path class="st0" d="M77,43.7h3.6v0.6H60.9v-0.6h3.5l0.1,0c1.3,0,2-0.2,2.5-0.5c0.5-0.3,0.8-0.9,0.9-1.6c0.1-0.7,0.2-2.2,0.2-4.5
		l0,0V3.8h-7.2V3.2h0.6c6.4,0,9.8-2.4,11.8-3.1v37.1v0c0,2.3,0.1,3.8,0.2,4.5c0.1,0.7,0.4,1.2,0.9,1.6C74.8,43.5,75.7,43.7,77,43.7"
		/>
	<path class="st0" d="M80.5,44.3c-1,0-3.3,0-4-0.5c-0.6-0.4-0.9-1.1-1.1-1.9c-0.1-0.7-0.2-2.2-0.2-4.5V0h1v37.4
		c0,2.2,0.1,3.7,0.2,4.4c0.1,0.6,0.3,1,0.7,1.2c0.3,0.2,2,0.7,3.4,0.7V44.3z"/>
	<path class="st0" d="M75.5,22.2v-0.6h1.4c4.5,0,11.3,0.2,11.3-11.2c0-10-5.9-9.8-9.8-9.8h-2.8V0h4.9C94.3,0,95,9.1,95,11
		c0,3.7-1.7,6.8-4.8,8.8c-3.8,2.4-8.8,2.4-11.2,2.4H75.5z"/>
	<path class="st1" d="M3,62.3H2.8c-0.1,0-0.2,0-0.3,0v2.3c0,0.3,0,0.5,0,0.7c0,0.2,0,0.4,0,0.5l1.5-0.1v0.7H0v-0.5
		c0.3,0,0.5-0.1,0.7-0.2c0.1-0.1,0.3-0.2,0.3-0.4c0.1-0.2,0.1-0.4,0.1-0.6c0-0.2,0-0.5,0-0.8v-6.8c0-0.2,0-0.4,0-0.6
		c0-0.2,0-0.4,0-0.5L0,56.1v-0.7c0.6,0,1.1,0,1.7,0c0.6,0,1.2,0,1.8,0c1.5,0,2.7,0.3,3.5,0.8c0.9,0.6,1.3,1.4,1.3,2.5
		c0,0.2,0,0.5-0.1,0.7c0,0.3-0.1,0.5-0.3,0.8c-0.1,0.3-0.4,0.6-0.6,0.8c-0.3,0.3-0.6,0.5-1,0.7c-0.4,0.2-0.9,0.3-1.4,0.5
		C4.4,62.2,3.8,62.3,3,62.3 M2.5,61.6c0.2,0,0.4,0,0.5,0c0.1,0,0.3,0,0.5,0c0.4,0,0.9-0.1,1.3-0.2c0.4-0.1,0.7-0.3,1-0.6
		c0.3-0.3,0.5-0.6,0.7-0.9c0.2-0.4,0.3-0.8,0.3-1.2c0-0.5-0.1-0.9-0.2-1.3c-0.2-0.3-0.4-0.6-0.7-0.9c-0.3-0.2-0.6-0.4-1-0.5
		C4.4,56,4,56,3.5,56c-0.3,0-0.5,0-0.6,0.1c-0.1,0.1-0.2,0.2-0.3,0.4c-0.1,0.2-0.1,0.4-0.1,0.6v0.8V61.6z"/>
	<path class="st1" d="M15.1,61.5c-0.2,0-0.4,0-0.5,0c-0.2,0-0.4,0-0.5,0v3.1c0,0.3,0,0.5,0,0.7c0,0.2,0,0.4,0,0.5l1.1-0.1v0.7h-3.6
		v-0.5c0.3,0,0.5-0.1,0.7-0.2s0.3-0.2,0.3-0.4c0.1-0.2,0.1-0.4,0.1-0.6c0-0.2,0-0.5,0-0.8v-6.8c0-0.2,0-0.4,0-0.6c0-0.2,0-0.4,0-0.5
		l-1.1,0.1v-0.7c0.6,0,1.2,0,1.8,0c0.6,0,1.2,0,1.8,0c0.8,0,1.4,0.1,2,0.2c0.5,0.1,1,0.3,1.3,0.6c0.3,0.2,0.6,0.5,0.8,0.9
		c0.2,0.3,0.2,0.7,0.2,1.2c0,0.3,0,0.6-0.1,0.9c-0.1,0.3-0.2,0.6-0.5,0.9c-0.2,0.3-0.5,0.5-0.9,0.8c-0.4,0.2-0.9,0.4-1.5,0.5
		c0.2,0.1,0.4,0.3,0.6,0.6c0.2,0.2,0.3,0.5,0.5,0.8l1.1,1.7c0.1,0.2,0.3,0.4,0.4,0.6c0.1,0.2,0.3,0.3,0.4,0.5
		c0.1,0.1,0.3,0.2,0.5,0.3c0.2,0.1,0.4,0.1,0.6,0.1v0.5h-2c-0.2-0.1-0.3-0.3-0.4-0.4c-0.1-0.1-0.2-0.3-0.4-0.4
		c-0.1-0.1-0.2-0.3-0.3-0.4c-0.1-0.2-0.2-0.3-0.3-0.5L16.1,63c-0.1-0.1-0.1-0.2-0.2-0.4c-0.1-0.1-0.2-0.3-0.2-0.4
		c-0.1-0.1-0.2-0.3-0.3-0.4C15.3,61.7,15.2,61.6,15.1,61.5 M14,60.9c0.2,0,0.3,0,0.5,0c0.2,0,0.3,0,0.5,0c0.4,0,0.8-0.1,1.2-0.2
		c0.4-0.1,0.7-0.2,0.9-0.4c0.3-0.2,0.5-0.5,0.6-0.8c0.1-0.3,0.2-0.7,0.2-1.2c0-0.8-0.2-1.4-0.7-1.8c-0.5-0.4-1.2-0.6-2.1-0.6
		c-0.3,0-0.5,0-0.7,0.1c-0.1,0.1-0.3,0.2-0.3,0.4c-0.1,0.2-0.1,0.4-0.1,0.6c0,0.2,0,0.5,0,0.8V60.9z"/>
	<path class="st1" d="M25.7,57.2c0-0.2,0-0.4,0-0.6c0-0.2,0-0.4,0-0.5l-1.1,0.1v-0.7h3.6v0.5c-0.3,0-0.5,0.1-0.7,0.2
		c-0.1,0.1-0.3,0.2-0.3,0.4c-0.1,0.2-0.1,0.4-0.1,0.6c0,0.2,0,0.5,0,0.8v6.7c0,0.3,0,0.5,0,0.7c0,0.2,0,0.4,0,0.5l1.1-0.1v0.7h-3.6
		v-0.5c0.3,0,0.5-0.1,0.7-0.2c0.1-0.1,0.3-0.2,0.3-0.4c0.1-0.2,0.1-0.4,0.1-0.6c0-0.2,0-0.5,0-0.8V57.2z"/>
	<path class="st1" d="M32.2,60.9c0-0.4,0-0.9,0.1-1.4c0.1-0.5,0.2-0.9,0.4-1.3c0.2-0.4,0.5-0.8,0.8-1.2c0.3-0.4,0.7-0.7,1.1-1
		c0.4-0.3,0.9-0.5,1.4-0.7c0.5-0.2,1.1-0.2,1.7-0.2c0.6,0,1.2,0.1,1.8,0.2c0.5,0.2,1,0.4,1.4,0.7c0.4,0.3,0.8,0.6,1.1,1
		s0.6,0.8,0.8,1.2c0.2,0.4,0.4,0.9,0.5,1.3c0.1,0.5,0.1,0.9,0.1,1.3s0,0.9-0.1,1.3c-0.1,0.5-0.2,0.9-0.4,1.3
		c-0.2,0.4-0.4,0.8-0.8,1.2c-0.3,0.4-0.7,0.7-1.1,1c-0.4,0.3-0.9,0.5-1.4,0.7c-0.5,0.2-1.1,0.2-1.7,0.2c-0.7,0-1.3-0.1-1.8-0.2
		c-0.5-0.2-1-0.4-1.4-0.7c-0.4-0.3-0.8-0.6-1.1-1c-0.3-0.4-0.5-0.8-0.7-1.2c-0.2-0.4-0.3-0.9-0.4-1.3C32.2,61.8,32.2,61.4,32.2,60.9
		 M33.7,60.6c0,0.4,0,0.8,0.1,1.2c0.1,0.4,0.2,0.8,0.3,1.2c0.1,0.4,0.3,0.8,0.6,1.1c0.2,0.4,0.5,0.7,0.8,1c0.3,0.3,0.7,0.5,1,0.6
		c0.4,0.2,0.8,0.2,1.3,0.2c0.4,0,0.8-0.1,1.2-0.2c0.4-0.1,0.7-0.3,1-0.5s0.5-0.5,0.8-0.8c0.2-0.3,0.4-0.6,0.5-1
		c0.1-0.4,0.3-0.7,0.3-1.1c0.1-0.4,0.1-0.8,0.1-1.1c0-0.4,0-0.8-0.1-1.3c-0.1-0.5-0.2-0.9-0.4-1.3c-0.2-0.4-0.4-0.8-0.6-1.1
		c-0.2-0.4-0.5-0.7-0.8-0.9c-0.3-0.3-0.6-0.5-1-0.6c-0.4-0.2-0.8-0.2-1.2-0.2c-0.6,0-1.2,0.1-1.7,0.4c-0.5,0.3-0.9,0.7-1.2,1.1
		c-0.3,0.5-0.6,1-0.7,1.6C33.8,59.5,33.7,60.1,33.7,60.6"/>
	<path class="st1" d="M50.4,61.5c-0.2,0-0.4,0-0.5,0c-0.2,0-0.4,0-0.5,0v3.1c0,0.3,0,0.5,0,0.7c0,0.2,0,0.4,0,0.5l1.1-0.1v0.7h-3.6
		v-0.5c0.3,0,0.5-0.1,0.7-0.2c0.1-0.1,0.3-0.2,0.3-0.4c0.1-0.2,0.1-0.4,0.1-0.6c0-0.2,0-0.5,0-0.8v-6.8c0-0.2,0-0.4,0-0.6
		c0-0.2,0-0.4,0-0.5l-1.1,0.1v-0.7c0.6,0,1.2,0,1.8,0c0.6,0,1.2,0,1.8,0c0.8,0,1.4,0.1,2,0.2c0.5,0.1,1,0.3,1.3,0.6
		c0.3,0.2,0.6,0.5,0.8,0.9c0.2,0.3,0.2,0.7,0.2,1.2c0,0.3,0,0.6-0.1,0.9c-0.1,0.3-0.2,0.6-0.5,0.9c-0.2,0.3-0.5,0.5-0.9,0.8
		c-0.4,0.2-0.9,0.4-1.5,0.5c0.2,0.1,0.4,0.3,0.6,0.6c0.2,0.2,0.3,0.5,0.5,0.8l1.1,1.7c0.1,0.2,0.3,0.4,0.4,0.6
		c0.1,0.2,0.3,0.3,0.4,0.5c0.1,0.1,0.3,0.2,0.5,0.3c0.2,0.1,0.4,0.1,0.6,0.1v0.5h-2c-0.2-0.1-0.3-0.3-0.4-0.4
		c-0.1-0.1-0.2-0.3-0.4-0.4c-0.1-0.1-0.2-0.3-0.3-0.4c-0.1-0.2-0.2-0.3-0.3-0.5L51.4,63c-0.1-0.1-0.1-0.2-0.2-0.4
		c-0.1-0.1-0.2-0.3-0.2-0.4c-0.1-0.1-0.2-0.3-0.3-0.4C50.6,61.7,50.5,61.6,50.4,61.5 M49.3,60.9c0.2,0,0.3,0,0.5,0
		c0.2,0,0.3,0,0.5,0c0.4,0,0.8-0.1,1.2-0.2c0.4-0.1,0.7-0.2,0.9-0.4c0.3-0.2,0.5-0.5,0.6-0.8c0.1-0.3,0.2-0.7,0.2-1.2
		c0-0.8-0.2-1.4-0.7-1.8c-0.5-0.4-1.2-0.6-2.1-0.6c-0.3,0-0.5,0-0.7,0.1c-0.1,0.1-0.3,0.2-0.3,0.4c-0.1,0.2-0.1,0.4-0.1,0.6
		c0,0.2,0,0.5,0,0.8V60.9z"/>
	<path class="st1" d="M61,57.2c0-0.2,0-0.4,0-0.6c0-0.2,0-0.4,0-0.5l-1.1,0.1v-0.7h3.6v0.5c-0.3,0-0.5,0.1-0.7,0.2
		c-0.1,0.1-0.3,0.2-0.3,0.4c-0.1,0.2-0.1,0.4-0.1,0.6c0,0.2,0,0.5,0,0.8v6.7c0,0.3,0,0.5,0,0.7c0,0.2,0,0.4,0,0.5l1.1-0.1v0.7h-3.6
		v-0.5c0.3,0,0.5-0.1,0.7-0.2c0.1-0.1,0.3-0.2,0.3-0.4C61,65.2,61,65,61,64.8c0-0.2,0-0.5,0-0.8V57.2z"/>
	<path class="st1" d="M76.7,58.7c0-0.5,0-0.9-0.1-1.2c-0.1-0.3-0.2-0.6-0.3-0.9c-0.2-0.2-0.4-0.4-0.6-0.5C75.4,56,75,56,74.6,56
		l-1.3,0l0,8.6c0,0.6,0,1,0,1.3l1.3-0.1v0.7h-3.7v-0.5c0.3,0,0.5-0.1,0.7-0.2c0.1-0.1,0.3-0.2,0.3-0.4c0.1-0.2,0.1-0.4,0.1-0.6V64
		l0-8l-1.6,0c-0.3,0-0.6,0.1-0.8,0.2c-0.2,0.1-0.4,0.3-0.6,0.5c-0.1,0.2-0.2,0.5-0.3,0.9c-0.1,0.3-0.1,0.7-0.1,1.2h-0.6l0.1-3.3h9.2
		l0.1,3.3H76.7z"/>
	<path class="st1" d="M85.3,62.2l-2.7-4.3c-0.3-0.4-0.5-0.8-0.6-1.1c-0.1-0.3-0.2-0.5-0.3-0.7l-1,0v-0.7h4.1v0.5
		c-0.4,0-0.6,0-0.8,0.1c-0.2,0.1-0.3,0.2-0.4,0.4c-0.1,0.2,0,0.3,0,0.5c0.1,0.2,0.2,0.4,0.3,0.7c0.2,0.3,0.4,0.6,0.6,0.9
		c0.2,0.3,0.4,0.6,0.5,0.8c0.2,0.3,0.4,0.6,0.5,0.8c0.2,0.3,0.4,0.6,0.6,0.9h0c1.2-2.2,1.9-3.6,2.1-4c0.2-0.4,0.4-0.7,0.4-0.8
		c0.1-0.1,0.1-0.2,0.2-0.3l-1.3,0.1v-0.7H91v0.5c-0.3,0-0.5,0.1-0.7,0.2c-0.2,0.1-0.4,0.2-0.6,0.4c-0.2,0.2-0.4,0.4-0.5,0.6
		c-0.2,0.2-1,1.8-2.5,4.6c0,0.5,0,1.1,0,1.8c0,0.7,0,1,0,1c0,0.6,0,1,0,1.3l1.3-0.1v0.7h-3.7v-0.5c0.3,0,0.5-0.1,0.7-0.2
		c0.1-0.1,0.3-0.2,0.3-0.4c0.1-0.2,0.1-0.4,0.1-0.6V64L85.3,62.2z"/>
	<path class="st1" d="M106.7,62.3h-0.2c-0.1,0-0.2,0-0.3,0v2.3c0,0.3,0,0.5,0,0.7c0,0.2,0,0.4,0,0.5l1.5-0.1v0.7h-3.9v-0.5
		c0.3,0,0.5-0.1,0.7-0.2c0.1-0.1,0.3-0.2,0.3-0.4c0.1-0.2,0.1-0.4,0.1-0.6c0-0.2,0-0.5,0-0.8v-6.8c0-0.2,0-0.4,0-0.6
		c0-0.2,0-0.4,0-0.5l-1.1,0.1v-0.7c0.6,0,1.1,0,1.7,0c0.6,0,1.2,0,1.8,0c1.5,0,2.7,0.3,3.5,0.8c0.9,0.6,1.3,1.4,1.3,2.5
		c0,0.2,0,0.5-0.1,0.7c0,0.3-0.1,0.5-0.3,0.8c-0.1,0.3-0.4,0.6-0.6,0.8c-0.3,0.3-0.6,0.5-1,0.7c-0.4,0.2-0.9,0.3-1.4,0.5
		C108.1,62.2,107.5,62.3,106.7,62.3 M106.2,61.6c0.2,0,0.4,0,0.5,0c0.1,0,0.3,0,0.5,0c0.4,0,0.9-0.1,1.3-0.2c0.4-0.1,0.7-0.3,1-0.6
		c0.3-0.3,0.5-0.6,0.7-0.9c0.2-0.4,0.3-0.8,0.3-1.2c0-0.5-0.1-0.9-0.2-1.3c-0.2-0.3-0.4-0.6-0.7-0.9s-0.6-0.4-1-0.5
		c-0.4-0.1-0.8-0.1-1.3-0.1c-0.3,0-0.5,0-0.6,0.1c-0.1,0.1-0.2,0.2-0.3,0.4c-0.1,0.2-0.1,0.4-0.1,0.6v0.8V61.6z"/>
	<path class="st1" d="M115.6,64.7c0,0.1-0.1,0.2-0.1,0.3c0,0.1-0.1,0.2-0.1,0.3c0,0.1-0.1,0.2-0.1,0.2c0,0.1-0.1,0.2-0.1,0.2
		l1.2-0.1v0.7h-3v-0.5c0.2,0,0.4,0,0.6-0.1c0.1-0.1,0.3-0.2,0.4-0.4c0.1-0.2,0.2-0.4,0.3-0.6c0.1-0.2,0.2-0.5,0.3-0.8l3.3-8.9h0.4
		l3.5,9c0,0.1,0.1,0.2,0.1,0.4c0,0.2,0.1,0.3,0.1,0.5c0,0.2,0.1,0.3,0.1,0.5c0,0.2,0,0.3,0,0.4l1.1-0.1v0.7H120v-0.5
		c0.3,0,0.5-0.1,0.6-0.2c0.1-0.1,0.2-0.2,0.3-0.4c0-0.1,0-0.3,0-0.5c0-0.2-0.1-0.3-0.1-0.5l-0.6-1.5l-4.1,0.1
		c-0.1,0.3-0.2,0.6-0.3,0.9C115.7,64.2,115.7,64.5,115.6,64.7 M117.5,59.2c-0.2,0.7-0.5,1.3-0.6,1.8c-0.2,0.5-0.3,1-0.5,1.4h3.7
		l-1.1-3l-0.7-1.9h0L117.5,59.2z"/>
	<path class="st1" d="M127.3,66.6h-0.8l-0.1-3.4h0.6c0,0.5,0.1,0.9,0.3,1.2c0.2,0.4,0.4,0.6,0.7,0.9c0.3,0.2,0.6,0.4,1,0.5
		c0.4,0.1,0.8,0.2,1.2,0.2c0.3,0,0.6,0,0.9-0.1c0.3-0.1,0.5-0.2,0.7-0.4c0.2-0.2,0.4-0.4,0.5-0.6c0.1-0.2,0.2-0.5,0.2-0.8
		c0-0.4-0.1-0.7-0.3-1c-0.2-0.3-0.4-0.5-0.7-0.7c-0.3-0.2-0.6-0.4-1-0.6c-0.4-0.2-0.7-0.3-1.1-0.5c-0.4-0.2-0.7-0.4-1.1-0.5
		c-0.4-0.2-0.7-0.4-1-0.7c-0.3-0.3-0.5-0.6-0.7-0.9c-0.2-0.3-0.3-0.7-0.3-1.2c0-0.2,0-0.4,0.1-0.6c0-0.2,0.1-0.4,0.2-0.6
		c0.1-0.2,0.2-0.4,0.4-0.6s0.4-0.4,0.6-0.5c0.2-0.1,0.5-0.3,0.8-0.4c0.3-0.1,0.7-0.1,1.1-0.1c0.2,0,0.4,0,0.7,0
		c0.2,0,0.5,0.1,0.7,0.1c0.2,0.1,0.5,0.1,0.7,0.3c0.2,0.1,0.5,0.2,0.7,0.4l-0.1-0.7h0.8v3.5h-0.6c0-0.4-0.1-0.8-0.2-1.1
		c-0.1-0.4-0.3-0.7-0.5-1s-0.5-0.5-0.9-0.7c-0.3-0.2-0.7-0.3-1.2-0.3c-0.3,0-0.6,0-0.9,0.2c-0.3,0.1-0.5,0.2-0.6,0.4
		c-0.2,0.2-0.3,0.4-0.4,0.6c-0.1,0.2-0.1,0.5-0.1,0.7c0,0.4,0.1,0.7,0.3,0.9c0.2,0.3,0.4,0.5,0.7,0.7c0.3,0.2,0.6,0.4,1,0.6
		c0.4,0.2,0.7,0.3,1.1,0.5c0.4,0.2,0.7,0.4,1.1,0.6c0.4,0.2,0.7,0.4,1,0.7c0.3,0.3,0.5,0.6,0.7,0.9c0.2,0.3,0.3,0.8,0.3,1.2
		c0,0.4-0.1,0.8-0.2,1.2c-0.2,0.4-0.4,0.7-0.7,0.9c-0.3,0.3-0.7,0.5-1.2,0.6c-0.5,0.1-1,0.2-1.6,0.2c-0.2,0-0.5,0-0.7,0
		c-0.2,0-0.5-0.1-0.7-0.2c-0.2-0.1-0.5-0.2-0.7-0.3c-0.2-0.1-0.4-0.2-0.6-0.4L127.3,66.6z"/>
	<path class="st1" d="M138.2,66.6h-0.8l-0.1-3.4h0.6c0,0.5,0.1,0.9,0.3,1.2c0.2,0.4,0.4,0.6,0.7,0.9c0.3,0.2,0.6,0.4,1,0.5
		c0.4,0.1,0.8,0.2,1.2,0.2c0.3,0,0.6,0,0.9-0.1c0.3-0.1,0.5-0.2,0.7-0.4c0.2-0.2,0.4-0.4,0.5-0.6c0.1-0.2,0.2-0.5,0.2-0.8
		c0-0.4-0.1-0.7-0.3-1c-0.2-0.3-0.4-0.5-0.7-0.7c-0.3-0.2-0.6-0.4-1-0.6c-0.4-0.2-0.7-0.3-1.1-0.5c-0.4-0.2-0.7-0.4-1.1-0.5
		c-0.4-0.2-0.7-0.4-1-0.7s-0.5-0.6-0.7-0.9c-0.2-0.3-0.3-0.7-0.3-1.2c0-0.2,0-0.4,0.1-0.6c0-0.2,0.1-0.4,0.2-0.6
		c0.1-0.2,0.2-0.4,0.4-0.6s0.4-0.4,0.6-0.5c0.2-0.1,0.5-0.3,0.8-0.4c0.3-0.1,0.7-0.1,1.1-0.1c0.2,0,0.4,0,0.7,0
		c0.2,0,0.5,0.1,0.7,0.1c0.2,0.1,0.5,0.1,0.7,0.3c0.2,0.1,0.5,0.2,0.7,0.4l-0.1-0.7h0.8v3.5h-0.6c0-0.4-0.1-0.8-0.2-1.1
		c-0.1-0.4-0.3-0.7-0.5-1c-0.2-0.3-0.5-0.5-0.9-0.7c-0.3-0.2-0.7-0.3-1.2-0.3c-0.3,0-0.6,0-0.9,0.2c-0.3,0.1-0.5,0.2-0.6,0.4
		c-0.2,0.2-0.3,0.4-0.4,0.6c-0.1,0.2-0.1,0.5-0.1,0.7c0,0.4,0.1,0.7,0.3,0.9c0.2,0.3,0.4,0.5,0.7,0.7c0.3,0.2,0.6,0.4,1,0.6
		c0.4,0.2,0.7,0.3,1.1,0.5c0.4,0.2,0.7,0.4,1.1,0.6c0.4,0.2,0.7,0.4,1,0.7c0.3,0.3,0.5,0.6,0.7,0.9c0.2,0.3,0.3,0.8,0.3,1.2
		c0,0.4-0.1,0.8-0.2,1.2c-0.2,0.4-0.4,0.7-0.7,0.9c-0.3,0.3-0.7,0.5-1.2,0.6s-1,0.2-1.6,0.2c-0.2,0-0.5,0-0.7,0
		c-0.2,0-0.5-0.1-0.7-0.2c-0.2-0.1-0.5-0.2-0.7-0.3c-0.2-0.1-0.4-0.2-0.6-0.4L138.2,66.6z"/>
	<path class="st1" d="M151,55.3l0,1.1h-0.3c0-0.3-0.1-0.4-0.2-0.6c-0.1-0.1-0.2-0.2-0.4-0.2l-0.2,0v2.2c0,0,0,0.1,0,0.1
		c0,0,0,0.1,0,0.1c0,0,0,0.1,0,0.1c0,0,0,0.1,0,0.1l0.4,0v0.4h-1.4v-0.3c0.1,0,0.1,0,0.1,0c0,0,0.1,0,0.1-0.1c0,0,0.1-0.1,0.1-0.1
		c0-0.1,0-0.1,0-0.2v-2.3H149c-0.2,0-0.3,0.1-0.4,0.2c-0.1,0.1-0.2,0.3-0.2,0.6h-0.3l0-1.1H151z"/>
	<path class="st1" d="M154.9,56.1l-1,2.6h-0.4l-0.6-1.6c0,0,0-0.1-0.1-0.2c0-0.1-0.1-0.2-0.1-0.3c0-0.1-0.1-0.2-0.1-0.3
		c0-0.1-0.1-0.2-0.1-0.3h0c0,0.2,0,0.3,0,0.5c0,0.2,0,0.3,0,0.4l0,0.9c0,0,0,0.1,0,0.1c0,0,0,0.1,0,0.1c0,0,0,0.1,0,0.1
		c0,0,0,0.1,0,0.1l0.4,0v0.4h-1.1v-0.3c0.1,0,0.1,0,0.1,0c0,0,0.1,0,0.1-0.1c0,0,0.1-0.1,0.1-0.1c0-0.1,0-0.1,0-0.2l0-1.8
		c0,0,0-0.1,0-0.1c0,0,0-0.1,0-0.1c0,0,0-0.1,0-0.1c0,0,0-0.1,0-0.1l-0.4,0v-0.4h1l0.7,1.8c0,0.1,0,0.1,0.1,0.2
		c0,0.1,0.1,0.1,0.1,0.2c0,0.1,0,0.1,0.1,0.2s0,0.1,0,0.2h0c0-0.1,0.1-0.2,0.1-0.3c0-0.1,0.1-0.2,0.1-0.3l0.7-1.9h1.1v0.3
		c-0.1,0-0.1,0-0.1,0c0,0-0.1,0-0.1,0c0,0-0.1,0.1-0.1,0.1c0,0.1,0,0.1,0,0.2l0.1,1.8c0,0,0,0.1,0,0.1c0,0,0,0.1,0,0.1
		c0,0,0,0.1,0,0.1c0,0,0,0.1,0,0.1l0.4,0v0.4h-1.3v-0.3c0.1,0,0.1,0,0.1,0c0,0,0.1,0,0.1-0.1c0,0,0.1-0.1,0.1-0.1c0-0.1,0-0.1,0-0.2
		l0-1c0,0,0-0.1,0-0.1s0-0.1,0-0.2c0-0.1,0-0.2,0-0.2C154.9,56.2,154.9,56.1,154.9,56.1L154.9,56.1z"/>
</g>
</svg>
