<svg xmlns="http://www.w3.org/2000/svg" width="96" height="96" viewBox="0 0 96 96" role="img" aria-labelledby="title">
  <title id="title">SkyTeam</title>
  <rect width="96" height="96" rx="16" fill="#edf2fb"/>
  <path d="M22 55c16-22 34-31 52-28-11 5-19 14-24 27 8-6 17-8 27-6-11 8-23 14-36 18-7 2-14 3-21 3 7-3 13-8 18-14-5 1-11 1-16 0z" fill="#fff" stroke="#315a93" stroke-width="4" stroke-linejoin="round"/>
  <path d="M36 57c13-7 24-16 33-27-4 10-7 19-8 28" fill="none" stroke="#79a7d8" stroke-width="3" stroke-linecap="round"/>
  <text x="48" y="84" fill="#244c82" font-family="IBM Plex Sans, Arial, sans-serif" font-size="14" font-weight="750" text-anchor="middle" letter-spacing="0">ST</text>
</svg>
